<?xml version="1.0" standalone="no"?>
<!DOCTYPE svg PUBLIC "-//W3C//DTD SVG 20010904//EN"
 "http://www.w3.org/TR/2001/REC-SVG-20010904/DTD/svg10.dtd">
<svg version="1.0" xmlns="http://www.w3.org/2000/svg"
 width="188.000000pt" height="188.000000pt" viewBox="0 0 188.000000 188.000000"
 preserveAspectRatio="xMidYMid meet">
<metadata>
Created by potrace 1.14, written by Peter Selinger 2001-2017
</metadata>
<g transform="translate(0.000000,188.000000) scale(0.100000,-0.100000)"
fill="#000000" stroke="none">
<path d="M381 1534 c-214 -44 -362 -223 -364 -439 -1 -210 133 -387 338 -441
110 -30 262 -7 347 51 47 32 56 31 56 -2 0 -34 45 -72 84 -71 19 1 37 11 54
31 l25 29 -2 232 c-1 257 -9 307 -61 393 -103 171 -289 255 -477 217z m185
-174 c153 -58 228 -237 160 -385 -120 -264 -508 -202 -542 87 -16 135 75 267
210 304 46 13 128 10 172 -6z"/>
<path d="M1371 1539 c-224 -29 -394 -225 -392 -451 4 -347 372 -558 678 -387
29 16 54 29 55 29 2 0 3 -75 2 -167 0 -93 3 -176 8 -185 26 -54 91 -65 134
-23 l25 25 -3 413 -3 412 -36 75 c-44 90 -96 148 -175 195 -94 57 -189 77
-293 64z m177 -189 c100 -43 164 -144 165 -259 1 -161 -122 -283 -286 -283
-247 0 -372 287 -207 476 79 90 211 116 328 66z"/>
</g>
</svg>
